# xmcd
#
# Track frame offsets:
#	150
#	14200
#	25525
#	39487
#	52800
#	64005
#	77235
#	90715
#	100445
#	113050
#	127662
#	140957
#	154295
#	167907
#
# Disc length: 2396 seconds
#
# Revision: 0
# Processed by: cddbd v1.5.1PL0 Copyright (c) Steve Scherf et al.
# Submitted via: dBpowerAMP V4.0
#
DISCID=b8095a0e
DTITLE=Joe Tex - Oh Boy Classicsc Presents Joe Tex
DYEAR=1900
DGENRE=Soul
TTITLE0=Hold What You've Got
TTITLE1=I Gotcha
TTITLE2=Skinny Legs and All
TTITLE3=If Sugar Was as Sweet As You
TTITLE4=At the Dark End of the Street
TTITLE5=Show Me
TTITLE6=One Monkey Don't Stop No Show
TTITLE7=I Want to Do Everything for You
TTITLE8=S-Y-S-L-J-F-M (The Letter Song)
TTITLE9=Funny How Time Slips Away
TTITLE10=The Love You Save
TTITLE11=Papa Was Too
TTITLE12=I Believe I'm Gonna Make It
TTITLE13=Sweet Sweet Woman
EXTD=
EXTT0=
EXTT1=
EXTT2=
EXTT3=
EXTT4=
EXTT5=
EXTT6=
EXTT7=
EXTT8=
EXTT9=
EXTT10=
EXTT11=
EXTT12=
EXTT13=
PLAYORDER=
